:SAMPLES-PER-SECOND 30
:FULLY-SPECIFIED
:DEGREES
184
root  -31.0836 39.605 -0.372358 -12.5454 -82.061 4.41541
RightUpLeg  1.94938 -7.38541 -2.26404
RightLeg  19.2726 6.39836 1.68343
RightFoot  -12.8363 -0.117166 -2.30249
RightToes  -2.32831e-009 0 -3.6325e-017
Spine  9.19088 0.683224 9.93373
Spine1  7.29161 2.39516 -2.89618
HEad  -18.22 -5.43203 -3.07255
LeftShoulder1  -0.604588 5.02774 -33.5232
LeftArm  -4.78514 -3.81202 -40.0904
LeftForeArm  38.9207 -5.17907 -8.77396
LeftHand  -0.252014 11.8322 -3.2387
RightShoulder  -0.851648 -5.86688 29.434
RightArm  4.62983 4.2929 42.6094
RightForeArm  16.2726 3.09543 3.63365
RightHand  0.110464 5.39739 0.854447
LeftUpLeg  -11.6877 3.77077 1.9873
LeftLeg  17.1756 -3.81733 -0.99365
LeftFoot  -2.05165 0.685904 -8.34193
LeftToes  8.91272e-011 -1.70619e-011 7.36378e-012
185
root  -30.0519 39.6121 -0.253492 -12.2656 -81.8526 4.41504
RightUpLeg  -0.102212 -7.73399 -2.52652
RightLeg  19.3936 6.67416 1.74908
RightFoot  -11.5156 -0.0805407 -1.9478
RightToes  -2.32831e-009 0 -3.6325e-017
Spine  8.72934 0.471376 10.3759
Spine1  7.49301 2.16071 -2.31236
HEad  -17.9293 -5.81961 -2.86906
LeftShoulder1  -0.61236 5.07092 -32.9106
LeftArm  -5.05514 -6.78942 -40.5412
LeftForeArm  36.9295 -7.52395 -8.36624
LeftHand  -0.253539 11.596 -3.39445
RightShoulder  -0.856384 -5.86369 29.6848
RightArm  4.87968 0.458029 40.0718
RightForeArm  16.025 2.3081 3.47777
RightHand  0.0879706 4.89574 0.691972
LeftUpLeg  -10.852 2.34736 2.59447
LeftLeg  23.5105 -3.00018 -1.11302
LeftFoot  -4.32397 0.532783 -8.21744
LeftToes  8.91272e-011 -1.70619e-011 7.36378e-012
186
root  -29.0353 39.5722 -0.121241 -9.90021 -81.7463 2.09088
RightUpLeg  -1.87464 -7.87271 -2.40518
RightLeg  19.4112 6.60702 1.72363
RightFoot  -10.1558 -0.0529424 -1.57299
RightToes  -2.32831e-009 0 -3.6325e-017
Spine  8.64114 0.0951094 10.2557
Spine1  7.57315 1.54212 -0.850402
HEad  -18.2929 -5.30244 -2.57028
LeftShoulder1  -0.54073 4.91053 -32.2994
LeftArm  -3.72942 -8.13845 -41.1602
LeftForeArm  32.0476 -11.289 -7.51703
LeftHand  -0.192119 11.1581 -2.56445
RightShoulder  -0.873394 -5.90056 29.8224
RightArm  7.48802 -3.27918 37.0454
RightForeArm  17.0517 4.48008 4.24645
RightHand  0.0874859 5.16482 0.654147
LeftUpLeg  -9.46419 1.42607 3.46265
LeftLeg  29.6659 -2.43453 -1.15892
LeftFoot  -6.47727 0.337427 -7.03895
LeftToes  8.91272e-011 -1.70619e-011 7.36378e-012
187
root  -28.0005 39.4957 0.0351085 -8.11218 -81.5266 0.269714
RightUpLeg  -3.69677 -8.00504 -2.52508
RightLeg  19.723 6.59811 1.88639
RightFoot  -8.99913 -0.0440904 -0.81009
RightToes  -2.32831e-009 0 -3.6325e-017
Spine  8.75424 -0.554296 9.76202
Spine1  7.42741 0.666263 0.347653
HEad  -18.3124 -4.53884 -1.72205
LeftShoulder1  -0.541659 4.92717 -31.912
LeftArm  -0.409862 -8.96795 -41.5425
LeftForeArm  25.427 -15.7331 -6.17342
LeftHand  -0.121728 11.4227 -1.05057
RightShoulder  -0.966392 -6.12524 30.291
RightArm  11.4066 -6.11595 33.6687
RightForeArm  17.4122 7.60274 5.41468
RightHand  0.0848343 5.52091 0.570368
LeftUpLeg  -7.55286 0.412498 4.0577
LeftLeg  34.7859 -1.87303 -1.06151
LeftFoot  -7.7714 0.238701 -6.18065
LeftToes  8.91272e-011 -1.70619e-011 7.36378e-012
188
root  -26.9667 39.4112 0.185963 -7.3479 -81.3022 -0.368958
RightUpLeg  -5.78584 -7.67476 -2.67557
RightLeg  20.1429 6.08272 1.81952
RightFoot  -7.47168 -0.0346195 -0.473576
RightToes  -2.32831e-009 0 -3.6325e-017
Spine  8.65577 -1.08606 7.94174
Spine1  7.17601 -0.533222 2.75433
HEad  -17.7763 -3.74069 -1.68859
LeftShoulder1  -0.528092 4.88783 -31.984
LeftArm  1.48403 -9.36739 -41.8092
LeftForeArm  20.5617 -19.3375 -4.79853
LeftHand  -0.0486635 9.68412 0.0864064
RightShoulder  -0.897363 -6.00077 29.3557
RightArm  14.0555 -8.91379 31.8738
RightForeArm  17.1342 10.156 5.79736
RightHand  0.14431 6.32601 1.09355
LeftUpLeg  -5.14072 -0.343287 4.47691
LeftLeg  38.3429 -2.10793 -1.42282
LeftFoot  -8.96579 0.180472 -6.13006
LeftToes  8.91272e-011 -1.70619e-011 7.36378e-012
